<?xml version="1.0" standalone="no"?>
<!DOCTYPE svg PUBLIC "-//W3C//DTD SVG 20010904//EN"
 "http://www.w3.org/TR/2001/REC-SVG-20010904/DTD/svg10.dtd">
<svg version="1.0" xmlns="http://www.w3.org/2000/svg"
 width="512.000000pt" height="512.000000pt" viewBox="0 0 512.000000 512.000000"
 preserveAspectRatio="xMidYMid meet">

<g transform="translate(0.000000,512.000000) scale(0.100000,-0.100000)"
fill="#000000" stroke="none">
<path d="M613 4796 c-103 -34 -176 -98 -222 -196 -22 -46 -26 -69 -26 -140 0
-76 4 -93 33 -152 38 -77 92 -130 171 -167 47 -22 70 -26 141 -26 71 0 94 4
141 26 79 37 133 90 171 167 29 59 33 76 33 152 0 71 -4 94 -26 141 -58 124
-169 199 -302 205 -43 3 -89 -2 -114 -10z m165 -205 c43 -22 82 -84 82 -131 0
-75 -76 -150 -151 -150 -46 0 -108 39 -130 82 -37 72 -14 151 57 194 47 29 92
30 142 5z"/>
<path d="M3911 4696 c-87 -48 -50 -186 49 -186 51 0 100 49 100 99 0 75 -83
124 -149 87z"/>
<path d="M4263 4492 c-251 -90 -272 -432 -35 -549 81 -40 183 -40 264 0 107
53 163 144 163 267 0 85 -21 142 -74 203 -72 81 -213 117 -318 79z m146 -196
c67 -35 65 -143 -4 -174 -91 -41 -179 51 -131 137 26 47 84 63 135 37z"/>
<path d="M1637 4399 c-98 -23 -199 -109 -245 -207 -26 -55 -27 -63 -30 -269
l-4 -212 -301 -3 c-292 -3 -304 -4 -362 -27 -82 -33 -173 -124 -206 -206 l-24
-60 -3 -1202 -2 -1203 -110 0 c-63 0 -120 -5 -135 -12 -57 -26 -69 -101 -35
-232 29 -113 73 -190 160 -276 86 -87 163 -131 276 -160 76 -20 118 -20 1944
-20 1826 0 1868 0 1944 20 113 29 190 73 276 160 87 86 131 163 160 276 34
131 22 206 -35 232 -15 7 -72 12 -135 12 l-110 0 -2 1203 -3 1202 -23 57 c-27
67 -97 148 -158 184 -82 48 -127 54 -431 54 l-281 0 -4 213 c-3 204 -4 214
-29 267 -39 82 -99 144 -177 182 l-67 33 -905 2 c-508 1 -922 -3 -943 -8z
m1833 -211 c31 -16 51 -36 67 -67 21 -40 23 -58 23 -178 l0 -133 -1000 0
-1000 0 0 133 c0 118 3 138 23 177 16 33 34 51 67 68 l44 22 866 0 866 0 44
-22z m90 -1411 l0 -834 -23 -44 c-16 -31 -36 -51 -67 -66 l-44 -23 -866 0
-866 0 -44 22 c-33 17 -51 35 -67 68 l-23 44 0 833 0 833 1000 0 1000 0 0
-833z m-2200 633 l0 -100 -210 0 c-141 0 -218 -4 -235 -12 -58 -26 -55 29 -55
-1178 l0 -1110 -100 0 -100 0 0 1175 c0 1035 2 1180 15 1212 21 50 42 72 90
94 36 17 70 19 318 19 l277 0 0 -100z m2987 85 c50 -21 72 -42 94 -90 18 -38
19 -96 19 -1217 l0 -1178 -100 0 -100 0 0 1110 c0 838 -3 1115 -12 1135 -23
50 -49 55 -278 55 l-210 0 0 100 0 100 275 0 c225 0 282 -3 312 -15z m-2985
-997 l3 -613 27 -57 c34 -74 112 -152 186 -186 l57 -27 925 0 925 0 67 33 c78
38 138 100 177 182 l26 55 3 613 3 612 149 0 150 0 0 -1050 0 -1050 -510 0
c-375 0 -516 -3 -535 -12 -19 -8 -40 -39 -71 -100 l-44 -88 -340 0 -340 0 -44
88 c-31 61 -52 92 -71 100 -19 9 -160 12 -535 12 l-510 0 0 1050 0 1050 150 0
149 0 3 -612z m682 -1776 c31 -61 52 -92 71 -100 37 -17 853 -17 890 0 19 8
40 39 71 100 l44 88 815 0 815 0 -15 -37 c-47 -111 -108 -177 -214 -227 l-66
-31 -1895 0 -1895 0 -66 31 c-106 50 -167 116 -214 227 l-15 37 815 0 815 0
44 -88z"/>
<path d="M1760 4010 l0 -100 100 0 100 0 0 100 0 100 -100 0 -100 0 0 -100z"/>
<path d="M2060 4010 l0 -100 100 0 100 0 0 100 0 100 -100 0 -100 0 0 -100z"/>
<path d="M2105 3491 c-50 -31 -233 -225 -240 -254 -4 -15 -4 -39 0 -54 9 -37
231 -259 268 -268 76 -19 141 46 122 122 -3 14 -38 60 -78 100 l-71 74 66 67
c70 71 88 98 88 131 0 53 -48 101 -102 101 -13 0 -36 -8 -53 -19z"/>
<path d="M2612 3497 c-17 -8 -56 -76 -138 -239 -63 -125 -114 -237 -114 -248
0 -51 49 -100 100 -100 55 0 69 19 186 252 63 125 114 237 114 247 0 74 -80
121 -148 88z"/>
<path d="M2911 3496 c-45 -25 -63 -84 -40 -129 6 -12 41 -52 77 -89 l66 -67
-71 -74 c-40 -40 -75 -86 -78 -100 -19 -76 46 -141 123 -122 36 9 258 231 267
268 13 50 -5 80 -113 190 -136 139 -170 157 -231 123z"/>
<path d="M1860 2610 l0 -100 550 0 550 0 0 100 0 100 -550 0 -550 0 0 -100z"/>
<path d="M3060 2610 l0 -100 100 0 100 0 0 100 0 100 -100 0 -100 0 0 -100z"/>
<path d="M2060 2310 l0 -100 350 0 350 0 0 100 0 100 -350 0 -350 0 0 -100z"/>
<path d="M1860 2010 l0 -100 700 0 700 0 0 100 0 100 -700 0 -700 0 0 -100z"/>
<path d="M1011 4096 c-87 -48 -50 -186 49 -186 51 0 100 49 100 99 0 75 -83
124 -149 87z"/>
</g>
</svg>
